<svg xmlns="http://www.w3.org/2000/svg" version="1.1" xmlns:xlink="http://www.w3.org/1999/xlink" width="24" height="24" x="0" y="0" viewBox="0 0 30 30" style="enable-background:new 0 0 512 512" xml:space="preserve" class=""><g><path d="M25.961 3.05H4.04A3.794 3.794 0 0 0 .25 6.839V23.16a3.794 3.794 0 0 0 3.79 3.79h21.921a3.794 3.794 0 0 0 3.789-3.79V6.839a3.795 3.795 0 0 0-3.789-3.789zm2.289 20.11a2.292 2.292 0 0 1-2.289 2.29H4.04a2.292 2.292 0 0 1-2.29-2.29v-3.51l6.891-6.886c.392-.383 1.076-.394 1.443.03l9.03 9.852c.662.719 1.768-.287 1.106-1.014L18.175 19.4l2.675-2.887c.365-.414 1.054-.422 1.437-.028l5.963 5.975zm0-2.821-4.9-4.909a2.5 2.5 0 0 0-3.6.069l-2.591 2.8-5.97-6.512c-.905-1.043-2.661-1.096-3.608-.082L1.75 17.529V6.839A2.292 2.292 0 0 1 4.04 4.55h21.921a2.293 2.293 0 0 1 2.289 2.289z" fill="#000000" opacity="1" data-original="#000000" class=""></path><path d="M16.869 7.112c-3.818.097-3.815 5.684-.002 5.788 3.817-.095 3.818-5.69.002-5.788zm0 4.288c-1.834-.031-1.831-2.751-.002-2.789v.001c1.833.03 1.834 2.756.002 2.788z" fill="#000000" opacity="1" data-original="#000000" class=""></path></g></svg>